<svg width="1036" height="206" viewBox="0 0 1036 206" fill="none" xmlns="http://www.w3.org/2000/svg">
<path d="M249.791 183V168.6H261.461V183H259.051V170.86H252.201V183H249.791ZM269.453 183.3C268.4 183.3 267.517 183.05 266.803 182.55C266.09 182.05 265.553 181.37 265.193 180.51C264.833 179.643 264.653 178.673 264.653 177.6C264.653 176.513 264.833 175.54 265.193 174.68C265.553 173.82 266.08 173.143 266.773 172.65C267.473 172.15 268.337 171.9 269.363 171.9C270.383 171.9 271.267 172.15 272.013 172.65C272.767 173.143 273.35 173.82 273.763 174.68C274.177 175.533 274.383 176.507 274.383 177.6C274.383 178.68 274.18 179.65 273.773 180.51C273.367 181.37 272.793 182.05 272.053 182.55C271.313 183.05 270.447 183.3 269.453 183.3ZM264.243 187.8V172.2H266.373V179.78H266.673V187.8H264.243ZM269.083 181.14C269.71 181.14 270.227 180.983 270.633 180.67C271.04 180.357 271.34 179.933 271.533 179.4C271.733 178.86 271.833 178.26 271.833 177.6C271.833 176.947 271.733 176.353 271.533 175.82C271.333 175.28 271.023 174.853 270.603 174.54C270.183 174.22 269.65 174.06 269.003 174.06C268.39 174.06 267.89 174.21 267.503 174.51C267.117 174.803 266.83 175.217 266.643 175.75C266.463 176.277 266.373 176.893 266.373 177.6C266.373 178.3 266.463 178.917 266.643 179.45C266.83 179.983 267.12 180.4 267.513 180.7C267.913 180.993 268.437 181.14 269.083 181.14ZM281.358 183.3C280.278 183.3 279.334 183.057 278.528 182.57C277.721 182.083 277.094 181.413 276.648 180.56C276.208 179.7 275.988 178.713 275.988 177.6C275.988 176.467 276.214 175.473 276.668 174.62C277.121 173.767 277.751 173.1 278.558 172.62C279.364 172.14 280.298 171.9 281.358 171.9C282.444 171.9 283.391 172.143 284.198 172.63C285.004 173.117 285.631 173.79 286.078 174.65C286.524 175.503 286.748 176.487 286.748 177.6C286.748 178.72 286.521 179.71 286.068 180.57C285.621 181.423 284.994 182.093 284.188 182.58C283.381 183.06 282.438 183.3 281.358 183.3ZM281.358 181.04C282.318 181.04 283.031 180.72 283.498 180.08C283.964 179.44 284.198 178.613 284.198 177.6C284.198 176.553 283.961 175.72 283.488 175.1C283.014 174.473 282.304 174.16 281.358 174.16C280.711 174.16 280.178 174.307 279.758 174.6C279.344 174.887 279.038 175.29 278.838 175.81C278.638 176.323 278.538 176.92 278.538 177.6C278.538 178.647 278.774 179.483 279.248 180.11C279.728 180.73 280.431 181.04 281.358 181.04ZM293.861 183.3C292.767 183.3 291.807 183.063 290.981 182.59C290.154 182.117 289.507 181.46 289.041 180.62C288.581 179.78 288.351 178.813 288.351 177.72C288.351 176.54 288.577 175.517 289.031 174.65C289.484 173.777 290.114 173.1 290.921 172.62C291.727 172.14 292.661 171.9 293.721 171.9C294.841 171.9 295.791 172.163 296.571 172.69C297.357 173.21 297.941 173.947 298.321 174.9C298.701 175.853 298.844 176.977 298.751 178.27H296.361V177.39C296.354 176.217 296.147 175.36 295.741 174.82C295.334 174.28 294.694 174.01 293.821 174.01C292.834 174.01 292.101 174.317 291.621 174.93C291.141 175.537 290.901 176.427 290.901 177.6C290.901 178.693 291.141 179.54 291.621 180.14C292.101 180.74 292.801 181.04 293.721 181.04C294.314 181.04 294.824 180.91 295.251 180.65C295.684 180.383 296.017 180 296.251 179.5L298.631 180.22C298.217 181.193 297.577 181.95 296.711 182.49C295.851 183.03 294.901 183.3 293.861 183.3ZM290.141 178.27V176.45H297.571V178.27H290.141ZM300.962 183L300.982 172.2H303.422V177.4L307.372 172.2H310.382L306.192 177.6L310.742 183H307.552L303.422 177.8V183H300.962ZM314.454 183V174.34H310.844V172.2H320.474V174.34H316.864V183H314.454ZM322.349 183V172.2H324.759V176.46H329.609V172.2H332.019V183H329.609V178.72H324.759V183H322.349ZM334.8 183L334.79 172.2H337.2V175.8H338.41C338.71 175.8 339.047 175.807 339.42 175.82C339.8 175.833 340.117 175.863 340.37 175.91C340.977 176.043 341.493 176.257 341.92 176.55C342.353 176.843 342.683 177.227 342.91 177.7C343.137 178.173 343.25 178.743 343.25 179.41C343.25 180.363 343.003 181.127 342.51 181.7C342.017 182.267 341.327 182.653 340.44 182.86C340.18 182.92 339.857 182.96 339.47 182.98C339.083 182.993 338.74 183 338.44 183H334.8ZM337.2 181.11H338.65C338.797 181.11 338.96 181.103 339.14 181.09C339.32 181.077 339.49 181.047 339.65 181C339.95 180.92 340.217 180.74 340.45 180.46C340.683 180.173 340.8 179.823 340.8 179.41C340.8 178.977 340.683 178.62 340.45 178.34C340.217 178.06 339.93 177.877 339.59 177.79C339.43 177.75 339.267 177.723 339.1 177.71C338.94 177.697 338.79 177.69 338.65 177.69H337.2V181.11ZM344.38 183V172.2H346.79V183H344.38ZM354.505 183.3C353.412 183.3 352.452 183.063 351.625 182.59C350.799 182.117 350.152 181.46 349.685 180.62C349.225 179.78 348.995 178.813 348.995 177.72C348.995 176.54 349.222 175.517 349.675 174.65C350.129 173.777 350.759 173.1 351.565 172.62C352.372 172.14 353.305 171.9 354.365 171.9C355.485 171.9 356.435 172.163 357.215 172.69C358.002 173.21 358.585 173.947 358.965 174.9C359.345 175.853 359.489 176.977 359.395 178.27H357.005V177.39C356.999 176.217 356.792 175.36 356.385 174.82C355.979 174.28 355.339 174.01 354.465 174.01C353.479 174.01 352.745 174.317 352.265 174.93C351.785 175.537 351.545 176.427 351.545 177.6C351.545 178.693 351.785 179.54 352.265 180.14C352.745 180.74 353.445 181.04 354.365 181.04C354.959 181.04 355.469 180.91 355.895 180.65C356.329 180.383 356.662 180 356.895 179.5L359.275 180.22C358.862 181.193 358.222 181.95 357.355 182.49C356.495 183.03 355.545 183.3 354.505 183.3ZM350.785 178.27V176.45H358.215V178.27H350.785ZM370.82 183.3C369.767 183.3 368.884 183.05 368.17 182.55C367.457 182.05 366.92 181.37 366.56 180.51C366.2 179.643 366.02 178.673 366.02 177.6C366.02 176.513 366.2 175.54 366.56 174.68C366.92 173.82 367.447 173.143 368.14 172.65C368.84 172.15 369.704 171.9 370.73 171.9C371.75 171.9 372.634 172.15 373.38 172.65C374.134 173.143 374.717 173.82 375.13 174.68C375.544 175.533 375.75 176.507 375.75 177.6C375.75 178.68 375.547 179.65 375.14 180.51C374.734 181.37 374.16 182.05 373.42 182.55C372.68 183.05 371.814 183.3 370.82 183.3ZM365.61 187.8V172.2H367.74V179.78H368.04V187.8H365.61ZM370.45 181.14C371.077 181.14 371.594 180.983 372 180.67C372.407 180.357 372.707 179.933 372.9 179.4C373.1 178.86 373.2 178.26 373.2 177.6C373.2 176.947 373.1 176.353 372.9 175.82C372.7 175.28 372.39 174.853 371.97 174.54C371.55 174.22 371.017 174.06 370.37 174.06C369.757 174.06 369.257 174.21 368.87 174.51C368.484 174.803 368.197 175.217 368.01 175.75C367.83 176.277 367.74 176.893 367.74 177.6C367.74 178.3 367.83 178.917 368.01 179.45C368.197 179.983 368.487 180.4 368.88 180.7C369.28 180.993 369.804 181.14 370.45 181.14ZM380.975 183.3C380.195 183.3 379.535 183.153 378.995 182.86C378.455 182.56 378.045 182.163 377.765 181.67C377.491 181.177 377.355 180.633 377.355 180.04C377.355 179.52 377.441 179.053 377.615 178.64C377.788 178.22 378.055 177.86 378.415 177.56C378.775 177.253 379.241 177.003 379.815 176.81C380.248 176.67 380.755 176.543 381.335 176.43C381.921 176.317 382.555 176.213 383.235 176.12C383.921 176.02 384.638 175.913 385.385 175.8L384.525 176.29C384.531 175.543 384.365 174.993 384.025 174.64C383.685 174.287 383.111 174.11 382.305 174.11C381.818 174.11 381.348 174.223 380.895 174.45C380.441 174.677 380.125 175.067 379.945 175.62L377.745 174.93C378.011 174.017 378.518 173.283 379.265 172.73C380.018 172.177 381.031 171.9 382.305 171.9C383.265 171.9 384.108 172.057 384.835 172.37C385.568 172.683 386.111 173.197 386.465 173.91C386.658 174.29 386.775 174.68 386.815 175.08C386.855 175.473 386.875 175.903 386.875 176.37V183H384.765V180.66L385.115 181.04C384.628 181.82 384.058 182.393 383.405 182.76C382.758 183.12 381.948 183.3 380.975 183.3ZM381.455 181.38C382.001 181.38 382.468 181.283 382.855 181.09C383.241 180.897 383.548 180.66 383.775 180.38C384.008 180.1 384.165 179.837 384.245 179.59C384.371 179.283 384.441 178.933 384.455 178.54C384.475 178.14 384.485 177.817 384.485 177.57L385.225 177.79C384.498 177.903 383.875 178.003 383.355 178.09C382.835 178.177 382.388 178.26 382.015 178.34C381.641 178.413 381.311 178.497 381.025 178.59C380.745 178.69 380.508 178.807 380.315 178.94C380.121 179.073 379.971 179.227 379.865 179.4C379.765 179.573 379.715 179.777 379.715 180.01C379.715 180.277 379.781 180.513 379.915 180.72C380.048 180.92 380.241 181.08 380.495 181.2C380.755 181.32 381.075 181.38 381.455 181.38ZM393.968 183.32C392.941 183.307 392.068 183.077 391.348 182.63C390.628 182.183 390.065 181.553 389.658 180.74C389.251 179.927 389.005 178.967 388.918 177.86C388.878 177.293 388.875 176.66 388.908 175.96C388.941 175.26 389.015 174.577 389.128 173.91C389.241 173.243 389.398 172.677 389.598 172.21C389.805 171.743 390.075 171.313 390.408 170.92C390.741 170.52 391.101 170.187 391.488 169.92C391.928 169.613 392.405 169.377 392.918 169.21C393.438 169.043 393.981 168.917 394.548 168.83C395.115 168.737 395.698 168.653 396.298 168.58C396.898 168.507 397.491 168.413 398.078 168.3L398.298 170.43C397.925 170.523 397.491 170.597 396.998 170.65C396.511 170.697 396.005 170.75 395.478 170.81C394.958 170.87 394.461 170.957 393.988 171.07C393.515 171.183 393.105 171.35 392.758 171.57C392.278 171.863 391.911 172.283 391.658 172.83C391.405 173.377 391.255 173.953 391.208 174.56C391.621 173.947 392.135 173.517 392.748 173.27C393.368 173.017 393.995 172.89 394.628 172.89C395.588 172.89 396.411 173.117 397.098 173.57C397.791 174.023 398.321 174.64 398.688 175.42C399.061 176.193 399.248 177.057 399.248 178.01C399.248 179.077 399.025 180.01 398.578 180.81C398.131 181.61 397.511 182.23 396.718 182.67C395.925 183.11 395.008 183.327 393.968 183.32ZM394.088 181.06C394.955 181.06 395.608 180.793 396.048 180.26C396.495 179.72 396.718 179.003 396.718 178.11C396.718 177.197 396.488 176.477 396.028 175.95C395.575 175.423 394.928 175.16 394.088 175.16C393.235 175.16 392.585 175.423 392.138 175.95C391.691 176.477 391.468 177.197 391.468 178.11C391.468 179.043 391.695 179.77 392.148 180.29C392.601 180.803 393.248 181.06 394.088 181.06ZM406.221 183.3C405.141 183.3 404.197 183.057 403.391 182.57C402.584 182.083 401.957 181.413 401.511 180.56C401.071 179.7 400.851 178.713 400.851 177.6C400.851 176.467 401.077 175.473 401.531 174.62C401.984 173.767 402.614 173.1 403.421 172.62C404.227 172.14 405.161 171.9 406.221 171.9C407.307 171.9 408.254 172.143 409.061 172.63C409.867 173.117 410.494 173.79 410.941 174.65C411.387 175.503 411.611 176.487 411.611 177.6C411.611 178.72 411.384 179.71 410.931 180.57C410.484 181.423 409.857 182.093 409.051 182.58C408.244 183.06 407.301 183.3 406.221 183.3ZM406.221 181.04C407.181 181.04 407.894 180.72 408.361 180.08C408.827 179.44 409.061 178.613 409.061 177.6C409.061 176.553 408.824 175.72 408.351 175.1C407.877 174.473 407.167 174.16 406.221 174.16C405.574 174.16 405.041 174.307 404.621 174.6C404.207 174.887 403.901 175.29 403.701 175.81C403.501 176.323 403.401 176.92 403.401 177.6C403.401 178.647 403.637 179.483 404.111 180.11C404.591 180.73 405.294 181.04 406.221 181.04ZM416.309 183V174.34H412.699V172.2H422.329V174.34H418.719V183H416.309ZM424.214 183L424.204 172.2H426.614V175.8H427.824C428.124 175.8 428.461 175.807 428.834 175.82C429.214 175.833 429.531 175.863 429.784 175.91C430.391 176.043 430.908 176.257 431.334 176.55C431.768 176.843 432.098 177.227 432.324 177.7C432.551 178.173 432.664 178.743 432.664 179.41C432.664 180.363 432.418 181.127 431.924 181.7C431.431 182.267 430.741 182.653 429.854 182.86C429.594 182.92 429.271 182.96 428.884 182.98C428.498 182.993 428.154 183 427.854 183H424.214ZM426.614 181.11H428.064C428.211 181.11 428.374 181.103 428.554 181.09C428.734 181.077 428.904 181.047 429.064 181C429.364 180.92 429.631 180.74 429.864 180.46C430.098 180.173 430.214 179.823 430.214 179.41C430.214 178.977 430.098 178.62 429.864 178.34C429.631 178.06 429.344 177.877 429.004 177.79C428.844 177.75 428.681 177.723 428.514 177.71C428.354 177.697 428.204 177.69 428.064 177.69H426.614V181.11ZM433.794 183V172.2H436.204V183H433.794Z" fill="#373736"/>
<path d="M180.495 151H173V158.495H180.495V151Z" stroke="#DCAD3A" stroke-width="2" stroke-miterlimit="1.5" stroke-linecap="round" stroke-linejoin="round"/>
<path d="M180.498 154.75H215.498" stroke="#DCAD3A" stroke-width="2" stroke-miterlimit="1.5" stroke-linecap="round" stroke-linejoin="round"/>
<path d="M176.75 158.495V193.5" stroke="#DCAD3A" stroke-width="2" stroke-miterlimit="1.5" stroke-linecap="round" stroke-linejoin="round"/>
<path d="M219.245 158.5V193.505" stroke="#DCAD3A" stroke-width="2" stroke-miterlimit="1.5" stroke-linecap="round" stroke-linejoin="round"/>
<path d="M180.498 197.25H215.498" stroke="#DCAD3A" stroke-width="2" stroke-miterlimit="1.5" stroke-linecap="round" stroke-linejoin="round"/>
<path d="M180.495 193.5H173V200.995H180.495V193.5Z" stroke="#DCAD3A" stroke-width="2" stroke-miterlimit="1.5" stroke-linecap="round" stroke-linejoin="round"/>
<path d="M222.993 151.002H215.5V158.497H222.995V151.002H222.993Z" stroke="#DCAD3A" stroke-width="2" stroke-miterlimit="1.5" stroke-linecap="round" stroke-linejoin="round"/>
<path d="M222.993 193.502H215.5V200.997H222.995V193.502H222.993Z" stroke="#DCAD3A" stroke-width="2" stroke-miterlimit="1.5" stroke-linecap="round" stroke-linejoin="round"/>
<path d="M190.5 176H205.5" stroke="#DCAD3A" stroke-width="2" stroke-linecap="round" stroke-linejoin="round"/>
<path d="M81.8434 38V23.6H84.2534V30.28L90.0034 23.6H92.9634L86.7734 30.66L93.3834 38H90.3234L84.2534 31.28V38H81.8434ZM98.7618 38.3C97.6818 38.3 96.7385 38.0567 95.9318 37.57C95.1251 37.0833 94.4985 36.4133 94.0518 35.56C93.6118 34.7 93.3918 33.7133 93.3918 32.6C93.3918 31.4667 93.6185 30.4733 94.0718 29.62C94.5251 28.7667 95.1551 28.1 95.9618 27.62C96.7685 27.14 97.7018 26.9 98.7618 26.9C99.8485 26.9 100.795 27.1433 101.602 27.63C102.408 28.1167 103.035 28.79 103.482 29.65C103.928 30.5033 104.152 31.4867 104.152 32.6C104.152 33.72 103.925 34.71 103.472 35.57C103.025 36.4233 102.398 37.0933 101.592 37.58C100.785 38.06 99.8418 38.3 98.7618 38.3ZM98.7618 36.04C99.7218 36.04 100.435 35.72 100.902 35.08C101.368 34.44 101.602 33.6133 101.602 32.6C101.602 31.5533 101.365 30.72 100.892 30.1C100.418 29.4733 99.7085 29.16 98.7618 29.16C98.1151 29.16 97.5818 29.3067 97.1618 29.6C96.7485 29.8867 96.4418 30.29 96.2418 30.81C96.0418 31.3233 95.9418 31.92 95.9418 32.6C95.9418 33.6467 96.1785 34.4833 96.6518 35.11C97.1318 35.73 97.8351 36.04 98.7618 36.04ZM106.335 38V27.2H108.745V31.46H113.595V27.2H116.005V38H113.595V33.72H108.745V38H106.335ZM123.486 38.3C122.373 38.3 121.423 38.0533 120.636 37.56C119.85 37.06 119.246 36.38 118.826 35.52C118.413 34.66 118.203 33.6867 118.196 32.6C118.203 31.4933 118.42 30.5133 118.846 29.66C119.28 28.8 119.893 28.1267 120.686 27.64C121.48 27.1467 122.423 26.9 123.516 26.9C124.743 26.9 125.78 27.21 126.626 27.83C127.48 28.4433 128.036 29.2833 128.296 30.35L125.896 31C125.71 30.42 125.4 29.97 124.966 29.65C124.533 29.3233 124.04 29.16 123.486 29.16C122.86 29.16 122.343 29.31 121.936 29.61C121.53 29.9033 121.23 30.31 121.036 30.83C120.843 31.35 120.746 31.94 120.746 32.6C120.746 33.6267 120.976 34.4567 121.436 35.09C121.896 35.7233 122.58 36.04 123.486 36.04C124.126 36.04 124.63 35.8933 124.996 35.6C125.37 35.3067 125.65 34.8833 125.836 34.33L128.296 34.88C127.963 35.98 127.38 36.8267 126.546 37.42C125.713 38.0067 124.693 38.3 123.486 38.3ZM131.33 42.8L133.41 37.09L133.45 38.77L128.74 27.2H131.25L134.59 35.76H133.95L137.2 27.2H139.61L133.59 42.8H131.33ZM139.711 38V35.98C140.104 36.0533 140.407 36.0467 140.621 35.96C140.834 35.8667 140.994 35.6933 141.101 35.44C141.207 35.1867 141.301 34.85 141.381 34.43C141.487 33.8367 141.581 33.1533 141.661 32.38C141.747 31.6067 141.821 30.78 141.881 29.9C141.947 29.02 142.007 28.12 142.061 27.2H150.011V38H147.611V29.46H144.181C144.147 29.8933 144.107 30.38 144.061 30.92C144.014 31.4533 143.964 31.9933 143.911 32.54C143.857 33.0867 143.797 33.6067 143.731 34.1C143.671 34.5867 143.607 35.0033 143.541 35.35C143.387 36.13 143.167 36.7467 142.881 37.2C142.601 37.6533 142.207 37.9433 141.701 38.07C141.194 38.2033 140.531 38.18 139.711 38ZM152.81 38L152.8 27.2H155.21V30.8H157.15C157.45 30.8 157.787 30.8067 158.16 30.82C158.54 30.8333 158.857 30.8633 159.11 30.91C159.717 31.0433 160.233 31.2567 160.66 31.55C161.093 31.8433 161.423 32.2267 161.65 32.7C161.877 33.1733 161.99 33.7433 161.99 34.41C161.99 35.3633 161.743 36.1267 161.25 36.7C160.763 37.2667 160.077 37.6533 159.19 37.86C158.923 37.92 158.597 37.96 158.21 37.98C157.83 37.9933 157.487 38 157.18 38H152.81ZM155.21 36.11H157.39C157.537 36.11 157.7 36.1033 157.88 36.09C158.06 36.0767 158.233 36.0467 158.4 36C158.7 35.92 158.963 35.74 159.19 35.46C159.423 35.1733 159.54 34.8233 159.54 34.41C159.54 33.9767 159.423 33.62 159.19 33.34C158.957 33.06 158.67 32.8767 158.33 32.79C158.177 32.75 158.017 32.7233 157.85 32.71C157.683 32.6967 157.53 32.69 157.39 32.69H155.21V36.11ZM166.897 38V29.34H163.287V27.2H172.917V29.34H169.307V38H166.897ZM177.578 38.3C176.798 38.3 176.138 38.1533 175.598 37.86C175.058 37.56 174.648 37.1633 174.368 36.67C174.095 36.1767 173.958 35.6333 173.958 35.04C173.958 34.52 174.045 34.0533 174.218 33.64C174.392 33.22 174.658 32.86 175.018 32.56C175.378 32.2533 175.845 32.0033 176.418 31.81C176.852 31.67 177.358 31.5433 177.938 31.43C178.525 31.3167 179.158 31.2133 179.838 31.12C180.525 31.02 181.242 30.9133 181.988 30.8L181.128 31.29C181.135 30.5433 180.968 29.9933 180.628 29.64C180.288 29.2867 179.715 29.11 178.908 29.11C178.422 29.11 177.952 29.2233 177.498 29.45C177.045 29.6767 176.728 30.0667 176.548 30.62L174.348 29.93C174.615 29.0167 175.122 28.2833 175.868 27.73C176.622 27.1767 177.635 26.9 178.908 26.9C179.868 26.9 180.712 27.0567 181.438 27.37C182.172 27.6833 182.715 28.1967 183.068 28.91C183.262 29.29 183.378 29.68 183.418 30.08C183.458 30.4733 183.478 30.9033 183.478 31.37V38H181.368V35.66L181.718 36.04C181.232 36.82 180.662 37.3933 180.008 37.76C179.362 38.12 178.552 38.3 177.578 38.3ZM178.058 36.38C178.605 36.38 179.072 36.2833 179.458 36.09C179.845 35.8967 180.152 35.66 180.378 35.38C180.612 35.1 180.768 34.8367 180.848 34.59C180.975 34.2833 181.045 33.9333 181.058 33.54C181.078 33.14 181.088 32.8167 181.088 32.57L181.828 32.79C181.102 32.9033 180.478 33.0033 179.958 33.09C179.438 33.1767 178.992 33.26 178.618 33.34C178.245 33.4133 177.915 33.4967 177.628 33.59C177.348 33.69 177.112 33.8067 176.918 33.94C176.725 34.0733 176.575 34.2267 176.468 34.4C176.368 34.5733 176.318 34.7767 176.318 35.01C176.318 35.2767 176.385 35.5133 176.518 35.72C176.652 35.92 176.845 36.08 177.098 36.2C177.358 36.32 177.678 36.38 178.058 36.38ZM195.122 40.27V38H186.062V27.2H188.472V35.74H193.032V27.2H195.442V35.86H197.532V40.27H195.122ZM208.489 27.2V38H206.179V30.95L201.039 38H199.109V27.2H201.419V34.07L206.579 27.2H208.489ZM217.756 38V34.4H215.826C215.58 34.4 215.27 34.3933 214.896 34.38C214.53 34.3667 214.186 34.3333 213.866 34.28C213.033 34.1267 212.343 33.7633 211.796 33.19C211.25 32.61 210.976 31.8233 210.976 30.83C210.976 29.8567 211.236 29.0733 211.756 28.48C212.276 27.8867 212.953 27.5067 213.786 27.34C214.133 27.2667 214.49 27.2267 214.856 27.22C215.23 27.2067 215.54 27.2 215.786 27.2H220.166V38H217.756ZM210.696 38L213.276 33.87H215.786L213.226 38H210.696ZM215.576 32.51H217.756V29.09H215.576C215.45 29.09 215.296 29.0967 215.116 29.11C214.936 29.1233 214.756 29.1533 214.576 29.2C214.383 29.26 214.2 29.3633 214.026 29.51C213.853 29.6567 213.71 29.84 213.596 30.06C213.483 30.28 213.426 30.53 213.426 30.81C213.426 31.23 213.546 31.58 213.786 31.86C214.033 32.1333 214.32 32.3167 214.646 32.41C214.806 32.45 214.97 32.4767 215.136 32.49C215.31 32.5033 215.456 32.51 215.576 32.51Z" fill="#373736"/>
<path d="M42.5 31.3445C42.8315 31.3445 43.1495 31.2128 43.3839 30.9784C43.6183 30.7439 43.75 30.426 43.75 30.0945C43.75 29.763 43.6183 29.445 43.3839 29.2106C43.1495 28.9762 42.8315 28.8445 42.5 28.8445C42.1685 28.8445 41.8505 28.9762 41.6161 29.2106C41.3817 29.445 41.25 29.763 41.25 30.0945C41.25 30.426 41.3817 30.7439 41.6161 30.9784C41.8505 31.2128 42.1685 31.3445 42.5 31.3445Z" fill="#DCAD3A" stroke="#DCAD3A" stroke-width="2" stroke-linecap="round" stroke-linejoin="round"/>
<path d="M30 31.3445C30.3315 31.3445 30.6495 31.2128 30.8839 30.9784C31.1183 30.7439 31.25 30.426 31.25 30.0945C31.25 29.763 31.1183 29.445 30.8839 29.2106C30.6495 28.9762 30.3315 28.8445 30 28.8445C29.6685 28.8445 29.3505 28.9762 29.1161 29.2106C28.8817 29.445 28.75 29.763 28.75 30.0945C28.75 30.426 28.8817 30.7439 29.1161 30.9784C29.3505 31.2128 29.6685 31.3445 30 31.3445Z" fill="#DCAD3A" stroke="#DCAD3A" stroke-width="2" stroke-linecap="round" stroke-linejoin="round"/>
<path d="M17.5 31.3445C17.8315 31.3445 18.1495 31.2128 18.3839 30.9784C18.6183 30.7439 18.75 30.426 18.75 30.0945C18.75 29.763 18.6183 29.445 18.3839 29.2106C18.1495 28.9762 17.8315 28.8445 17.5 28.8445C17.1685 28.8445 16.8505 28.9762 16.6161 29.2106C16.3817 29.445 16.25 29.763 16.25 30.0945C16.25 30.426 16.3817 30.7439 16.6161 30.9784C16.8505 31.2128 17.1685 31.3445 17.5 31.3445Z" fill="#DCAD3A" stroke="#DCAD3A" stroke-width="2" stroke-linecap="round" stroke-linejoin="round"/>
<path d="M30 55.0945C43.8075 55.0945 55 43.902 55 30.0945C55 16.287 43.8075 5.09448 30 5.09448C16.1925 5.09448 5 16.287 5 30.0945C5 34.647 6.2175 38.9195 8.345 42.5945L6.25 53.8445L17.5 51.7495C21.2989 53.9471 25.6113 55.1011 30 55.0945V55.0945Z" stroke="#DCAD3A" stroke-width="2" stroke-linecap="round" stroke-linejoin="round"/>
<path d="M521.947 38.3C520.507 38.3 519.274 37.9867 518.247 37.36C517.22 36.7267 516.43 35.8467 515.877 34.72C515.33 33.5933 515.057 32.2867 515.057 30.8C515.057 29.3133 515.33 28.0067 515.877 26.88C516.43 25.7533 517.22 24.8767 518.247 24.25C519.274 23.6167 520.507 23.3 521.947 23.3C523.607 23.3 524.99 23.7167 526.097 24.55C527.204 25.3767 527.98 26.4933 528.427 27.9L525.997 28.57C525.717 27.63 525.24 26.8967 524.567 26.37C523.894 25.8367 523.02 25.57 521.947 25.57C520.98 25.57 520.174 25.7867 519.527 26.22C518.887 26.6533 518.404 27.2633 518.077 28.05C517.757 28.83 517.594 29.7467 517.587 30.8C517.587 31.8533 517.747 32.7733 518.067 33.56C518.394 34.34 518.88 34.9467 519.527 35.38C520.174 35.8133 520.98 36.03 521.947 36.03C523.02 36.03 523.894 35.7633 524.567 35.23C525.24 34.6967 525.717 33.9633 525.997 33.03L528.427 33.7C527.98 35.1067 527.204 36.2267 526.097 37.06C524.99 37.8867 523.607 38.3 521.947 38.3ZM535.393 38.3C534.313 38.3 533.369 38.0567 532.563 37.57C531.756 37.0833 531.129 36.4133 530.683 35.56C530.243 34.7 530.023 33.7133 530.023 32.6C530.023 31.4667 530.249 30.4733 530.703 29.62C531.156 28.7667 531.786 28.1 532.593 27.62C533.399 27.14 534.333 26.9 535.393 26.9C536.479 26.9 537.426 27.1433 538.233 27.63C539.039 28.1167 539.666 28.79 540.113 29.65C540.559 30.5033 540.783 31.4867 540.783 32.6C540.783 33.72 540.556 34.71 540.103 35.57C539.656 36.4233 539.029 37.0933 538.223 37.58C537.416 38.06 536.473 38.3 535.393 38.3ZM535.393 36.04C536.353 36.04 537.066 35.72 537.533 35.08C537.999 34.44 538.233 33.6133 538.233 32.6C538.233 31.5533 537.996 30.72 537.523 30.1C537.049 29.4733 536.339 29.16 535.393 29.16C534.746 29.16 534.213 29.3067 533.793 29.6C533.379 29.8867 533.073 30.29 532.873 30.81C532.673 31.3233 532.573 31.92 532.573 32.6C532.573 33.6467 532.809 34.4833 533.283 35.11C533.763 35.73 534.466 36.04 535.393 36.04ZM542.986 38V27.2H550.686V29.46H545.396V38H542.986ZM551.4 38V35.98C551.793 36.0533 552.097 36.0467 552.31 35.96C552.523 35.8667 552.683 35.6933 552.79 35.44C552.897 35.1867 552.99 34.85 553.07 34.43C553.177 33.8367 553.27 33.1533 553.35 32.38C553.437 31.6067 553.51 30.78 553.57 29.9C553.637 29.02 553.697 28.12 553.75 27.2H561.7V38H559.3V29.46H555.87C555.837 29.8933 555.797 30.38 555.75 30.92C555.703 31.4533 555.653 31.9933 555.6 32.54C555.547 33.0867 555.487 33.6067 555.42 34.1C555.36 34.5867 555.297 35.0033 555.23 35.35C555.077 36.13 554.857 36.7467 554.57 37.2C554.29 37.6533 553.897 37.9433 553.39 38.07C552.883 38.2033 552.22 38.18 551.4 38ZM567.529 38.3C566.749 38.3 566.089 38.1533 565.549 37.86C565.009 37.56 564.599 37.1633 564.319 36.67C564.046 36.1767 563.909 35.6333 563.909 35.04C563.909 34.52 563.996 34.0533 564.169 33.64C564.343 33.22 564.609 32.86 564.969 32.56C565.329 32.2533 565.796 32.0033 566.369 31.81C566.803 31.67 567.309 31.5433 567.889 31.43C568.476 31.3167 569.109 31.2133 569.789 31.12C570.476 31.02 571.193 30.9133 571.939 30.8L571.079 31.29C571.086 30.5433 570.919 29.9933 570.579 29.64C570.239 29.2867 569.666 29.11 568.859 29.11C568.373 29.11 567.903 29.2233 567.449 29.45C566.996 29.6767 566.679 30.0667 566.499 30.62L564.299 29.93C564.566 29.0167 565.073 28.2833 565.819 27.73C566.573 27.1767 567.586 26.9 568.859 26.9C569.819 26.9 570.663 27.0567 571.389 27.37C572.123 27.6833 572.666 28.1967 573.019 28.91C573.213 29.29 573.329 29.68 573.369 30.08C573.409 30.4733 573.429 30.9033 573.429 31.37V38H571.319V35.66L571.669 36.04C571.183 36.82 570.613 37.3933 569.959 37.76C569.313 38.12 568.503 38.3 567.529 38.3ZM568.009 36.38C568.556 36.38 569.023 36.2833 569.409 36.09C569.796 35.8967 570.103 35.66 570.329 35.38C570.563 35.1 570.719 34.8367 570.799 34.59C570.926 34.2833 570.996 33.9333 571.009 33.54C571.029 33.14 571.039 32.8167 571.039 32.57L571.779 32.79C571.053 32.9033 570.429 33.0033 569.909 33.09C569.389 33.1767 568.943 33.26 568.569 33.34C568.196 33.4133 567.866 33.4967 567.579 33.59C567.299 33.69 567.063 33.8067 566.869 33.94C566.676 34.0733 566.526 34.2267 566.419 34.4C566.319 34.5733 566.269 34.7767 566.269 35.01C566.269 35.2767 566.336 35.5133 566.469 35.72C566.603 35.92 566.796 36.08 567.049 36.2C567.309 36.32 567.629 36.38 568.009 36.38ZM580.723 38.3C579.609 38.3 578.659 38.0533 577.873 37.56C577.086 37.06 576.483 36.38 576.063 35.52C575.649 34.66 575.439 33.6867 575.433 32.6C575.439 31.4933 575.656 30.5133 576.083 29.66C576.516 28.8 577.129 28.1267 577.923 27.64C578.716 27.1467 579.659 26.9 580.753 26.9C581.979 26.9 583.016 27.21 583.863 27.83C584.716 28.4433 585.273 29.2833 585.533 30.35L583.133 31C582.946 30.42 582.636 29.97 582.203 29.65C581.769 29.3233 581.276 29.16 580.723 29.16C580.096 29.16 579.579 29.31 579.173 29.61C578.766 29.9033 578.466 30.31 578.273 30.83C578.079 31.35 577.983 31.94 577.983 32.6C577.983 33.6267 578.213 34.4567 578.673 35.09C579.133 35.7233 579.816 36.04 580.723 36.04C581.363 36.04 581.866 35.8933 582.233 35.6C582.606 35.3067 582.886 34.8833 583.073 34.33L585.533 34.88C585.199 35.98 584.616 36.8267 583.783 37.42C582.949 38.0067 581.929 38.3 580.723 38.3ZM592.014 38.3C590.934 38.3 589.99 38.0567 589.184 37.57C588.377 37.0833 587.75 36.4133 587.304 35.56C586.864 34.7 586.644 33.7133 586.644 32.6C586.644 31.4667 586.87 30.4733 587.324 29.62C587.777 28.7667 588.407 28.1 589.214 27.62C590.02 27.14 590.954 26.9 592.014 26.9C593.1 26.9 594.047 27.1433 594.854 27.63C595.66 28.1167 596.287 28.79 596.734 29.65C597.18 30.5033 597.404 31.4867 597.404 32.6C597.404 33.72 597.177 34.71 596.724 35.57C596.277 36.4233 595.65 37.0933 594.844 37.58C594.037 38.06 593.094 38.3 592.014 38.3ZM592.014 36.04C592.974 36.04 593.687 35.72 594.154 35.08C594.62 34.44 594.854 33.6133 594.854 32.6C594.854 31.5533 594.617 30.72 594.144 30.1C593.67 29.4733 592.96 29.16 592.014 29.16C591.367 29.16 590.834 29.3067 590.414 29.6C590 29.8867 589.694 30.29 589.494 30.81C589.294 31.3233 589.194 31.92 589.194 32.6C589.194 33.6467 589.43 34.4833 589.904 35.11C590.384 35.73 591.087 36.04 592.014 36.04ZM599.587 38V27.2H604.497C604.85 27.2 605.18 27.22 605.487 27.26C605.794 27.3 606.057 27.35 606.277 27.41C606.797 27.5633 607.257 27.8633 607.657 28.31C608.057 28.75 608.257 29.36 608.257 30.14C608.257 30.6 608.184 30.98 608.037 31.28C607.89 31.5733 607.697 31.82 607.457 32.02C607.344 32.1133 607.227 32.1933 607.107 32.26C606.987 32.3267 606.867 32.38 606.747 32.42C607.007 32.46 607.254 32.5367 607.487 32.65C607.854 32.83 608.16 33.0967 608.407 33.45C608.66 33.8033 608.787 34.3 608.787 34.94C608.787 35.6667 608.61 36.28 608.257 36.78C607.91 37.2733 607.4 37.6167 606.727 37.81C606.48 37.8767 606.197 37.9267 605.877 37.96C605.557 37.9867 605.23 38 604.897 38H599.587ZM602.027 36.14H604.727C604.867 36.14 605.02 36.1267 605.187 36.1C605.354 36.0733 605.504 36.0367 605.637 35.99C605.877 35.9033 606.05 35.75 606.157 35.53C606.27 35.31 606.327 35.08 606.327 34.84C606.327 34.5133 606.244 34.2533 606.077 34.06C605.917 33.86 605.724 33.7267 605.497 33.66C605.364 33.6067 605.217 33.5767 605.057 33.57C604.904 33.5567 604.777 33.55 604.677 33.55H602.027V36.14ZM602.027 31.66H604.027C604.234 31.66 604.434 31.65 604.627 31.63C604.827 31.6033 604.994 31.56 605.127 31.5C605.347 31.4133 605.507 31.2667 605.607 31.06C605.714 30.8533 605.767 30.6233 605.767 30.37C605.767 30.1033 605.707 29.8633 605.587 29.65C605.474 29.43 605.29 29.2833 605.037 29.21C604.87 29.1433 604.667 29.1067 604.427 29.1C604.194 29.0933 604.044 29.09 603.977 29.09H602.027V31.66ZM613.799 38.3C613.019 38.3 612.359 38.1533 611.819 37.86C611.279 37.56 610.869 37.1633 610.589 36.67C610.316 36.1767 610.179 35.6333 610.179 35.04C610.179 34.52 610.266 34.0533 610.439 33.64C610.612 33.22 610.879 32.86 611.239 32.56C611.599 32.2533 612.066 32.0033 612.639 31.81C613.072 31.67 613.579 31.5433 614.159 31.43C614.746 31.3167 615.379 31.2133 616.059 31.12C616.746 31.02 617.462 30.9133 618.209 30.8L617.349 31.29C617.356 30.5433 617.189 29.9933 616.849 29.64C616.509 29.2867 615.936 29.11 615.129 29.11C614.642 29.11 614.172 29.2233 613.719 29.45C613.266 29.6767 612.949 30.0667 612.769 30.62L610.569 29.93C610.836 29.0167 611.342 28.2833 612.089 27.73C612.842 27.1767 613.856 26.9 615.129 26.9C616.089 26.9 616.932 27.0567 617.659 27.37C618.392 27.6833 618.936 28.1967 619.289 28.91C619.482 29.29 619.599 29.68 619.639 30.08C619.679 30.4733 619.699 30.9033 619.699 31.37V38H617.589V35.66L617.939 36.04C617.452 36.82 616.882 37.3933 616.229 37.76C615.582 38.12 614.772 38.3 613.799 38.3ZM614.279 36.38C614.826 36.38 615.292 36.2833 615.679 36.09C616.066 35.8967 616.372 35.66 616.599 35.38C616.832 35.1 616.989 34.8367 617.069 34.59C617.196 34.2833 617.266 33.9333 617.279 33.54C617.299 33.14 617.309 32.8167 617.309 32.57L618.049 32.79C617.322 32.9033 616.699 33.0033 616.179 33.09C615.659 33.1767 615.212 33.26 614.839 33.34C614.466 33.4133 614.136 33.4967 613.849 33.59C613.569 33.69 613.332 33.8067 613.139 33.94C612.946 34.0733 612.796 34.2267 612.689 34.4C612.589 34.5733 612.539 34.7767 612.539 35.01C612.539 35.2767 612.606 35.5133 612.739 35.72C612.872 35.92 613.066 36.08 613.319 36.2C613.579 36.32 613.899 36.38 614.279 36.38ZM622.282 38V27.2H624.692V31.46H629.542V27.2H631.952V38H629.542V33.72H624.692V38H622.282ZM644.104 27.2V38H641.794V30.95L636.654 38H634.724V27.2H637.034V34.07L642.194 27.2H644.104ZM651.822 38.3C650.728 38.3 649.768 38.0633 648.942 37.59C648.115 37.1167 647.468 36.46 647.002 35.62C646.542 34.78 646.312 33.8133 646.312 32.72C646.312 31.54 646.538 30.5167 646.992 29.65C647.445 28.7767 648.075 28.1 648.882 27.62C649.688 27.14 650.622 26.9 651.682 26.9C652.802 26.9 653.752 27.1633 654.532 27.69C655.318 28.21 655.902 28.9467 656.282 29.9C656.662 30.8533 656.805 31.9767 656.712 33.27H654.322V32.39C654.315 31.2167 654.108 30.36 653.702 29.82C653.295 29.28 652.655 29.01 651.782 29.01C650.795 29.01 650.062 29.3167 649.582 29.93C649.102 30.5367 648.862 31.4267 648.862 32.6C648.862 33.6933 649.102 34.54 649.582 35.14C650.062 35.74 650.762 36.04 651.682 36.04C652.275 36.04 652.785 35.91 653.212 35.65C653.645 35.3833 653.978 35 654.212 34.5L656.592 35.22C656.178 36.1933 655.538 36.95 654.672 37.49C653.812 38.03 652.862 38.3 651.822 38.3ZM648.102 33.27V31.45H655.532V33.27H648.102Z" fill="#373736"/>
<path d="M479 5V12.5" stroke="#DCAD3A" stroke-width="2" stroke-linecap="round" stroke-linejoin="round"/>
<path d="M479 22.5251L479.025 22.4976" stroke="#DCAD3A" stroke-width="2" stroke-linecap="round" stroke-linejoin="round"/>
<path d="M466.5 5.125C465.678 5.0425 464.845 5 464 5C450.193 5 439 16.1925 439 30C439 34.5525 440.218 38.825 442.345 42.5L440.25 53.75L451.5 51.655C455.299 53.8526 459.611 55.0066 464 55C477.807 55 489 43.8075 489 30C489 29.155 488.958 28.3225 488.875 27.5" stroke="#DCAD3A" stroke-width="2" stroke-linecap="round" stroke-linejoin="round"/>
<path d="M951.11 40.4V35.74C951.577 35.74 951.967 35.6233 952.28 35.39C952.594 35.1567 952.844 34.8333 953.03 34.42C953.224 34.0067 953.374 33.5267 953.48 32.98C953.587 32.4267 953.67 31.84 953.73 31.22C953.804 30.4 953.867 29.5967 953.92 28.81C953.974 28.0167 954.024 27.1967 954.07 26.35C954.124 25.4967 954.184 24.5733 954.25 23.58L963.64 23.6V35.74H964.72V40.4H962.32V38H953.52V40.4H951.11ZM954.86 35.74H961.23V25.86L956.45 25.84C956.404 26.54 956.364 27.1933 956.33 27.8C956.304 28.4 956.267 29.01 956.22 29.63C956.18 30.25 956.124 30.9267 956.05 31.66C955.984 32.38 955.91 32.98 955.83 33.46C955.757 33.94 955.647 34.3567 955.5 34.71C955.354 35.0567 955.14 35.4 954.86 35.74ZM971.69 38.3C970.61 38.3 969.666 38.0567 968.86 37.57C968.053 37.0833 967.426 36.4133 966.98 35.56C966.54 34.7 966.32 33.7133 966.32 32.6C966.32 31.4667 966.546 30.4733 967 29.62C967.453 28.7667 968.083 28.1 968.89 27.62C969.696 27.14 970.63 26.9 971.69 26.9C972.776 26.9 973.723 27.1433 974.53 27.63C975.336 28.1167 975.963 28.79 976.41 29.65C976.856 30.5033 977.08 31.4867 977.08 32.6C977.08 33.72 976.853 34.71 976.4 35.57C975.953 36.4233 975.326 37.0933 974.52 37.58C973.713 38.06 972.77 38.3 971.69 38.3ZM971.69 36.04C972.65 36.04 973.363 35.72 973.83 35.08C974.296 34.44 974.53 33.6133 974.53 32.6C974.53 31.5533 974.293 30.72 973.82 30.1C973.346 29.4733 972.636 29.16 971.69 29.16C971.043 29.16 970.51 29.3067 970.09 29.6C969.676 29.8867 969.37 30.29 969.17 30.81C968.97 31.3233 968.87 31.92 968.87 32.6C968.87 33.6467 969.106 34.4833 969.58 35.11C970.06 35.73 970.763 36.04 971.69 36.04ZM979.283 38V27.2H986.983V29.46H981.693V38H979.283ZM993.467 38.3C992.387 38.3 991.444 38.0567 990.637 37.57C989.83 37.0833 989.204 36.4133 988.757 35.56C988.317 34.7 988.097 33.7133 988.097 32.6C988.097 31.4667 988.324 30.4733 988.777 29.62C989.23 28.7667 989.86 28.1 990.667 27.62C991.474 27.14 992.407 26.9 993.467 26.9C994.554 26.9 995.5 27.1433 996.307 27.63C997.114 28.1167 997.74 28.79 998.187 29.65C998.634 30.5033 998.857 31.4867 998.857 32.6C998.857 33.72 998.63 34.71 998.177 35.57C997.73 36.4233 997.104 37.0933 996.297 37.58C995.49 38.06 994.547 38.3 993.467 38.3ZM993.467 36.04C994.427 36.04 995.14 35.72 995.607 35.08C996.074 34.44 996.307 33.6133 996.307 32.6C996.307 31.5533 996.07 30.72 995.597 30.1C995.124 29.4733 994.414 29.16 993.467 29.16C992.82 29.16 992.287 29.3067 991.867 29.6C991.454 29.8867 991.147 30.29 990.947 30.81C990.747 31.3233 990.647 31.92 990.647 32.6C990.647 33.6467 990.884 34.4833 991.357 35.11C991.837 35.73 992.54 36.04 993.467 36.04ZM1001.04 38V27.2H1005.95C1006.3 27.2 1006.63 27.22 1006.94 27.26C1007.25 27.3 1007.51 27.35 1007.73 27.41C1008.25 27.5633 1008.71 27.8633 1009.11 28.31C1009.51 28.75 1009.71 29.36 1009.71 30.14C1009.71 30.6 1009.64 30.98 1009.49 31.28C1009.34 31.5733 1009.15 31.82 1008.91 32.02C1008.8 32.1133 1008.68 32.1933 1008.56 32.26C1008.44 32.3267 1008.32 32.38 1008.2 32.42C1008.46 32.46 1008.71 32.5367 1008.94 32.65C1009.31 32.83 1009.61 33.0967 1009.86 33.45C1010.11 33.8033 1010.24 34.3 1010.24 34.94C1010.24 35.6667 1010.06 36.28 1009.71 36.78C1009.36 37.2733 1008.85 37.6167 1008.18 37.81C1007.93 37.8767 1007.65 37.9267 1007.33 37.96C1007.01 37.9867 1006.68 38 1006.35 38H1001.04ZM1003.48 36.14H1006.18C1006.32 36.14 1006.47 36.1267 1006.64 36.1C1006.81 36.0733 1006.96 36.0367 1007.09 35.99C1007.33 35.9033 1007.5 35.75 1007.61 35.53C1007.72 35.31 1007.78 35.08 1007.78 34.84C1007.78 34.5133 1007.7 34.2533 1007.53 34.06C1007.37 33.86 1007.18 33.7267 1006.95 33.66C1006.82 33.6067 1006.67 33.5767 1006.51 33.57C1006.36 33.5567 1006.23 33.55 1006.13 33.55H1003.48V36.14ZM1003.48 31.66H1005.48C1005.69 31.66 1005.89 31.65 1006.08 31.63C1006.28 31.6033 1006.45 31.56 1006.58 31.5C1006.8 31.4133 1006.96 31.2667 1007.06 31.06C1007.17 30.8533 1007.22 30.6233 1007.22 30.37C1007.22 30.1033 1007.16 29.8633 1007.04 29.65C1006.93 29.43 1006.74 29.2833 1006.49 29.21C1006.32 29.1433 1006.12 29.1067 1005.88 29.1C1005.65 29.0933 1005.5 29.09 1005.43 29.09H1003.48V31.66ZM1017 38.3C1015.92 38.3 1014.98 38.0567 1014.17 37.57C1013.37 37.0833 1012.74 36.4133 1012.29 35.56C1011.85 34.7 1011.63 33.7133 1011.63 32.6C1011.63 31.4667 1011.86 30.4733 1012.31 29.62C1012.77 28.7667 1013.4 28.1 1014.2 27.62C1015.01 27.14 1015.94 26.9 1017 26.9C1018.09 26.9 1019.04 27.1433 1019.84 27.63C1020.65 28.1167 1021.28 28.79 1021.72 29.65C1022.17 30.5033 1022.39 31.4867 1022.39 32.6C1022.39 33.72 1022.17 34.71 1021.71 35.57C1021.27 36.4233 1020.64 37.0933 1019.83 37.58C1019.03 38.06 1018.08 38.3 1017 38.3ZM1017 36.04C1017.96 36.04 1018.68 35.72 1019.14 35.08C1019.61 34.44 1019.84 33.6133 1019.84 32.6C1019.84 31.5533 1019.61 30.72 1019.13 30.1C1018.66 29.4733 1017.95 29.16 1017 29.16C1016.36 29.16 1015.82 29.3067 1015.4 29.6C1014.99 29.8867 1014.68 30.29 1014.48 30.81C1014.28 31.3233 1014.18 31.92 1014.18 32.6C1014.18 33.6467 1014.42 34.4833 1014.89 35.11C1015.37 35.73 1016.08 36.04 1017 36.04ZM1029.79 38.3C1028.73 38.3 1027.85 38.05 1027.14 37.55C1026.42 37.05 1025.89 36.37 1025.53 35.51C1025.17 34.6433 1024.99 33.6733 1024.99 32.6C1024.99 31.5133 1025.17 30.54 1025.53 29.68C1025.89 28.82 1026.41 28.1433 1027.11 27.65C1027.81 27.15 1028.67 26.9 1029.7 26.9C1030.72 26.9 1031.6 27.15 1032.35 27.65C1033.1 28.1433 1033.68 28.82 1034.1 29.68C1034.51 30.5333 1034.72 31.5067 1034.72 32.6C1034.72 33.68 1034.51 34.65 1034.11 35.51C1033.7 36.37 1033.13 37.05 1032.39 37.55C1031.65 38.05 1030.78 38.3 1029.79 38.3ZM1024.58 42.8V27.2H1026.71V34.78H1027.01V42.8H1024.58ZM1029.42 36.14C1030.04 36.14 1030.56 35.9833 1030.97 35.67C1031.37 35.3567 1031.67 34.9333 1031.87 34.4C1032.07 33.86 1032.17 33.26 1032.17 32.6C1032.17 31.9467 1032.07 31.3533 1031.87 30.82C1031.67 30.28 1031.36 29.8533 1030.94 29.54C1030.52 29.22 1029.98 29.06 1029.34 29.06C1028.72 29.06 1028.22 29.21 1027.84 29.51C1027.45 29.8033 1027.16 30.2167 1026.98 30.75C1026.8 31.2767 1026.71 31.8933 1026.71 32.6C1026.71 33.3 1026.8 33.9167 1026.98 34.45C1027.16 34.9833 1027.45 35.4 1027.85 35.7C1028.25 35.9933 1028.77 36.14 1029.42 36.14Z" fill="#373736"/>
<path d="M885 15H905" stroke="#DCAD3A" stroke-width="1.5" stroke-linecap="round" stroke-linejoin="round"/>
<path d="M885 25H915" stroke="#DCAD3A" stroke-width="1.5" stroke-linecap="round" stroke-linejoin="round"/>
<path d="M900 35H915" stroke="#DCAD3A" stroke-width="1.5" stroke-linecap="round" stroke-linejoin="round"/>
<path d="M900 45H915" stroke="#DCAD3A" stroke-width="1.5" stroke-linecap="round" stroke-linejoin="round"/>
<path d="M875 53.5V6.5C875 6.10218 875.158 5.72064 875.439 5.43934C875.721 5.15804 876.102 5 876.5 5H915.63C916.028 5.00035 916.409 5.15862 916.69 5.44L924.56 13.31C924.7 13.4497 924.811 13.6158 924.886 13.7986C924.962 13.9813 925 14.1772 925 14.375V53.5C925 53.697 924.961 53.892 924.886 54.074C924.81 54.256 924.7 54.4214 924.561 54.5607C924.421 54.6999 924.256 54.8104 924.074 54.8858C923.892 54.9612 923.697 55 923.5 55H876.5C876.303 55 876.108 54.9612 875.926 54.8858C875.744 54.8104 875.579 54.6999 875.439 54.5607C875.3 54.4214 875.19 54.256 875.114 54.074C875.039 53.892 875 53.697 875 53.5V53.5Z" stroke="#DCAD3A" stroke-width="1.5" stroke-linecap="round" stroke-linejoin="round"/>
<path d="M915 13.4999V5.88489C915 5.71008 915.052 5.53928 915.15 5.39403C915.247 5.24879 915.385 5.1356 915.547 5.06874C915.708 5.00189 915.886 4.98437 916.057 5.01838C916.229 5.0524 916.386 5.13644 916.51 5.25989L924.74 13.4899C924.865 13.6132 924.95 13.7708 924.985 13.9427C925.019 14.1146 925.002 14.2929 924.935 14.4549C924.868 14.6169 924.754 14.7553 924.608 14.8524C924.462 14.9494 924.29 15.0008 924.115 14.9999H916.5C916.303 14.9999 916.108 14.9611 915.926 14.8857C915.744 14.8103 915.579 14.6998 915.439 14.5605C915.3 14.4213 915.19 14.2559 915.114 14.0739C915.039 13.8919 915 13.6969 915 13.4999Z" fill="#DCAD3A" stroke="#DCAD3A" stroke-width="1.5" stroke-linecap="round" stroke-linejoin="round"/>
<path d="M885 45V35H890V45H885Z" fill="#DCAD3A" stroke="#DCAD3A" stroke-width="1.5" stroke-linecap="round" stroke-linejoin="round"/>
<path d="M731.623 184V169.6H734.033V176.28L739.783 169.6H742.743L736.553 176.66L743.163 184H740.103L734.033 177.28V184H731.623ZM747.592 184.3C746.812 184.3 746.152 184.153 745.612 183.86C745.072 183.56 744.662 183.163 744.382 182.67C744.109 182.177 743.972 181.633 743.972 181.04C743.972 180.52 744.059 180.053 744.232 179.64C744.405 179.22 744.672 178.86 745.032 178.56C745.392 178.253 745.859 178.003 746.432 177.81C746.865 177.67 747.372 177.543 747.952 177.43C748.539 177.317 749.172 177.213 749.852 177.12C750.539 177.02 751.255 176.913 752.002 176.8L751.142 177.29C751.149 176.543 750.982 175.993 750.642 175.64C750.302 175.287 749.729 175.11 748.922 175.11C748.435 175.11 747.965 175.223 747.512 175.45C747.059 175.677 746.742 176.067 746.562 176.62L744.362 175.93C744.629 175.017 745.135 174.283 745.882 173.73C746.635 173.177 747.649 172.9 748.922 172.9C749.882 172.9 750.725 173.057 751.452 173.37C752.185 173.683 752.729 174.197 753.082 174.91C753.275 175.29 753.392 175.68 753.432 176.08C753.472 176.473 753.492 176.903 753.492 177.37V184H751.382V181.66L751.732 182.04C751.245 182.82 750.675 183.393 750.022 183.76C749.375 184.12 748.565 184.3 747.592 184.3ZM748.072 182.38C748.619 182.38 749.085 182.283 749.472 182.09C749.859 181.897 750.165 181.66 750.392 181.38C750.625 181.1 750.782 180.837 750.862 180.59C750.989 180.283 751.059 179.933 751.072 179.54C751.092 179.14 751.102 178.817 751.102 178.57L751.842 178.79C751.115 178.903 750.492 179.003 749.972 179.09C749.452 179.177 749.005 179.26 748.632 179.34C748.259 179.413 747.929 179.497 747.642 179.59C747.362 179.69 747.125 179.807 746.932 179.94C746.739 180.073 746.589 180.227 746.482 180.4C746.382 180.573 746.332 180.777 746.332 181.01C746.332 181.277 746.399 181.513 746.532 181.72C746.665 181.92 746.859 182.08 747.112 182.2C747.372 182.32 747.692 182.38 748.072 182.38ZM756.075 184V173.2H758.055L761.925 180.66L765.805 173.2H767.775V184H765.475V178.05L762.405 184H761.455L758.385 178.05V184H756.075ZM779.928 173.2V184H777.618V176.95L772.478 184H770.548V173.2H772.858V180.07L778.018 173.2H779.928ZM782.716 184V173.2H785.126V177.46H789.976V173.2H792.386V184H789.976V179.72H785.126V184H782.716Z" fill="#373736"/>
<path d="M670 186C670 192.037 674.475 193.5 680 193.5C689.398 193.5 692.5 187.25 686.25 174.75C677.5 186 676.25 168.5 677.5 163.5C673.75 171 670 178.045 670 186Z" stroke="#DCAD3A" stroke-width="2" stroke-linecap="round" stroke-linejoin="round"/>
<path d="M680 193.5C692.625 193.5 700 186.24 700 173.812C700 161.388 680 148.5 680 148.5C680 148.5 660 161.385 660 173.812C660 186.237 667.375 193.5 680 193.5Z" stroke="#DCAD3A" stroke-width="2" stroke-linecap="round" stroke-linejoin="round"/>
<path d="M394 32C394.552 32 395 31.5523 395 31C395 30.4477 394.552 30 394 30V32ZM262 32H267.5V30H262V32ZM278.5 32H289.5V30H278.5V32ZM300.5 32H311.5V30H300.5V32ZM322.5 32H333.5V30H322.5V32ZM344.5 32H355.5V30H344.5V32ZM366.5 32H377.5V30H366.5V32ZM388.5 32H394V30H388.5V32Z" fill="#373736"/>
<path d="M610 177C610.552 177 611 176.552 611 176C611 175.448 610.552 175 610 175V177ZM478 177H483.5V175H478V177ZM494.5 177H505.5V175H494.5V177ZM516.5 177H527.5V175H516.5V177ZM538.5 177H549.5V175H538.5V177ZM560.5 177H571.5V175H560.5V177ZM582.5 177H593.5V175H582.5V177ZM604.5 177H610V175H604.5V177Z" fill="#373736"/>
<path d="M830 32C830.552 32 831 31.5523 831 31C831 30.4477 830.552 30 830 30V32ZM698 32H703.5V30H698V32ZM714.5 32H725.5V30H714.5V32ZM736.5 32H747.5V30H736.5V32ZM758.5 32H769.5V30H758.5V32ZM780.5 32H791.5V30H780.5V32ZM802.5 32H813.5V30H802.5V32ZM824.5 32H830V30H824.5V32Z" fill="#373736"/>
<path d="M76.9264 97.9998V96.9998C76.8669 96.9998 76.8075 97.0051 76.749 97.0156L76.9264 97.9998ZM956.996 98.9998C957.549 98.9998 957.996 98.552 957.996 97.9998C957.996 97.4475 957.549 96.9998 956.996 96.9998V98.9998ZM34.5 146.5L33.5176 146.687L34.5 146.5ZM145.431 175.5C145.33 174.505 145.33 174.505 145.33 174.505C145.33 174.505 145.33 174.505 145.33 174.505C145.33 174.505 145.33 174.505 145.33 174.505C145.33 174.505 145.33 174.505 145.329 174.505C145.328 174.505 145.327 174.505 145.326 174.505C145.322 174.506 145.317 174.506 145.31 174.507C145.297 174.508 145.276 174.51 145.248 174.513C145.193 174.518 145.11 174.526 145 174.537C144.78 174.558 144.453 174.588 144.026 174.625C143.173 174.7 141.92 174.804 140.326 174.918L140.469 176.913C142.074 176.798 143.338 176.693 144.201 176.618C144.633 176.58 144.965 176.549 145.189 176.528C145.301 176.517 145.386 176.509 145.444 176.503C145.473 176.501 145.494 176.498 145.509 176.497C145.516 176.496 145.522 176.496 145.526 176.495C145.528 176.495 145.529 176.495 145.53 176.495C145.531 176.495 145.531 176.495 145.532 176.495C145.532 176.495 145.532 176.495 145.532 176.495C145.532 176.495 145.532 176.495 145.532 176.495C145.532 176.495 145.532 176.495 145.431 175.5ZM130.177 175.483C127.11 175.607 123.687 175.705 120.011 175.745L120.033 177.745C123.731 177.704 127.174 177.606 130.257 177.481L130.177 175.483ZM109.851 175.698C106.556 175.629 103.154 175.504 99.699 175.305L99.5843 177.302C103.066 177.502 106.493 177.628 109.81 177.697L109.851 175.698ZM89.5795 174.508C86.2074 174.164 82.839 173.738 79.5242 173.214L79.2118 175.19C82.5675 175.72 85.9728 176.151 89.377 176.497L89.5795 174.508ZM69.5923 171.287C66.22 170.496 62.9712 169.576 59.9055 168.511L59.2491 170.4C62.3904 171.492 65.7071 172.43 69.1357 173.234L69.5923 171.287ZM50.6993 164.533C47.6071 162.869 44.8788 160.979 42.6041 158.839L41.2336 160.296C43.6597 162.578 46.5384 164.565 49.7513 166.295L50.6993 164.533ZM36.9189 150.966C36.2781 149.503 35.794 147.954 35.4824 146.313L33.5176 146.687C33.8572 148.475 34.386 150.168 35.087 151.768L36.9189 150.966ZM35.4824 146.313C35.0957 144.276 34.8657 142.327 34.776 140.461L32.7783 140.557C32.8727 142.52 33.1142 144.562 33.5176 146.687L35.4824 146.313ZM36.1632 128.922C37.3614 125.05 39.2481 121.646 41.5746 118.657L39.9962 117.428C37.538 120.587 35.5297 124.204 34.2526 128.331L36.1632 128.922ZM50.0549 110.562C53.3663 108.14 56.8888 106.175 60.2665 104.597L59.4199 102.785C55.9518 104.405 52.3119 106.434 48.8742 108.948L50.0549 110.562ZM71.3823 100.412C73.1265 99.8987 74.5635 99.5405 75.5615 99.3111C76.0605 99.1964 76.4495 99.114 76.7121 99.0605C76.8434 99.0338 76.943 99.0143 77.009 99.0017C77.042 98.9954 77.0666 98.9908 77.0825 98.9878C77.0904 98.9863 77.0962 98.9853 77.0997 98.9846C77.1015 98.9843 77.1027 98.9841 77.1034 98.984C77.1038 98.9839 77.104 98.9839 77.104 98.9839C77.1041 98.9838 77.1041 98.9838 77.104 98.9839C77.104 98.9839 77.1039 98.9839 77.1039 98.9839C77.1039 98.9839 77.1038 98.9839 76.9264 97.9998C76.749 97.0156 76.7489 97.0156 76.7488 97.0157C76.7487 97.0157 76.7486 97.0157 76.7485 97.0157C76.7484 97.0157 76.7481 97.0158 76.7479 97.0158C76.7474 97.0159 76.7468 97.016 76.746 97.0162C76.7444 97.0164 76.7423 97.0168 76.7397 97.0173C76.7343 97.0183 76.7268 97.0197 76.717 97.0215C76.6976 97.0251 76.6694 97.0304 76.6327 97.0374C76.5594 97.0515 76.4522 97.0724 76.3132 97.1007C76.0352 97.1573 75.6297 97.2433 75.1135 97.3619C74.0813 97.5992 72.6051 97.9674 70.8177 98.4933L71.3823 100.412ZM76.9264 98.9998H82.4268V96.9998H76.9264V98.9998ZM93.4277 98.9998H104.429V96.9998H93.4277V98.9998ZM115.429 98.9998H126.43V96.9998H115.429V98.9998ZM137.431 98.9998H148.432V96.9998H137.431V98.9998ZM159.433 98.9998H170.434V96.9998H159.433V98.9998ZM181.435 98.9998H192.436V96.9998H181.435V98.9998ZM203.436 98.9998H214.437V96.9998H203.436V98.9998ZM225.438 98.9998H236.439V96.9998H225.438V98.9998ZM247.44 98.9998H258.441V96.9998H247.44V98.9998ZM269.442 98.9998H280.442V96.9998H269.442V98.9998ZM291.443 98.9998H302.444V96.9998H291.443V98.9998ZM313.445 98.9998H324.446V96.9998H313.445V98.9998ZM335.447 98.9998H346.448V96.9998H335.447V98.9998ZM357.449 98.9998H368.45V96.9998H357.449V98.9998ZM379.45 98.9998H390.451V96.9998H379.45V98.9998ZM401.452 98.9998H412.453V96.9998H401.452V98.9998ZM423.454 98.9998H434.455V96.9998H423.454V98.9998ZM445.456 98.9998H456.457V96.9998H445.456V98.9998ZM467.457 98.9998H478.458V96.9998H467.457V98.9998ZM489.459 98.9998H500.46V96.9998H489.459V98.9998ZM511.461 98.9998H522.462V96.9998H511.461V98.9998ZM533.463 98.9998H544.464V96.9998H533.463V98.9998ZM555.465 98.9998H566.465V96.9998H555.465V98.9998ZM577.466 98.9998H588.467V96.9998H577.466V98.9998ZM599.468 98.9998H610.469V96.9998H599.468V98.9998ZM621.47 98.9998H632.471V96.9998H621.47V98.9998ZM643.471 98.9998H654.472V96.9998H643.471V98.9998ZM665.473 98.9998H676.474V96.9998H665.473V98.9998ZM687.475 98.9998H698.476V96.9998H687.475V98.9998ZM709.477 98.9998H720.477V96.9998H709.477V98.9998ZM731.478 98.9998H742.479V96.9998H731.478V98.9998ZM753.48 98.9998H764.481V96.9998H753.48V98.9998ZM775.482 98.9998H786.483V96.9998H775.482V98.9998ZM797.483 98.9998H808.484V96.9998H797.483V98.9998ZM819.485 98.9998H830.486V96.9998H819.485V98.9998ZM841.487 98.9998H852.488V96.9998H841.487V98.9998ZM863.489 98.9998H874.489V96.9998H863.489V98.9998ZM885.49 98.9998H896.491V96.9998H885.49V98.9998ZM907.492 98.9998H918.493V96.9998H907.492V98.9998ZM929.494 98.9998H940.495V96.9998H929.494V98.9998ZM951.495 98.9998H956.996V96.9998H951.495V98.9998Z" fill="#373736"/>
</svg>
